<?xml version="1.0" encoding="utf-8"?><svg xmlns="http://www.w3.org/2000/svg" xmlns:xlink="http://www.w3.org/1999/xlink" width="1920" height="937" preserveAspectRatio="xMidYMid" viewBox="0 0 1920 937" style="z-index:1;margin-right:-2px;display:block;background-repeat-y:initial;background-repeat-x:initial;background-color:rgb(47, 4, 89);animation-play-state:paused" ><g transform="translate(960,468.5) scale(1,1) translate(-960,-468.5)" style="transform:matrix(1, 0, 0, 1, 0, 0);animation-play-state:paused" ><linearGradient id="lg-0.5493880661006536" x1="0" x2="1" y1="0" y2="0" style="animation-play-state:paused" ><stop stop-color="#5c12a6" offset="0" style="animation-play-state:paused" ></stop>

  
<stop stop-color="#f2e205" offset="1" style="animation-play-state:paused" ></stop></linearGradient>
<path d="M 0 0 M 0 835.376 Q 192 813.609 384 812.466 T 768 772.624 T 1152 730.22 T 1536 675.382 T 1920 622.243 L 1920 271.175 Q 1728 196.018 1536 192.844 T 1152 223.679 T 768 140.586 T 384 179.595 T 0 60.158 Z" fill="url(#lg-0.5493880661006536)" opacity="0.4" style="opacity:0.4;animation-play-state:paused" ></path>
<path d="M 0 0 M 0 837.556 Q 192 840.005 384 833.281 T 768 767.806 T 1152 716.322 T 1536 709.374 T 1920 692.206 L 1920 267.027 Q 1728 201.479 1536 199.106 T 1152 233.248 T 768 118.641 T 384 123.185 T 0 120.18 Z" fill="url(#lg-0.5493880661006536)" opacity="0.4" style="opacity:0.4;animation-play-state:paused" ></path>
<path d="M 0 0 M 0 854.523 Q 192 807.386 384 798.451 T 768 784.643 T 1152 698.286 T 1536 708.84 T 1920 699.321 L 1920 259.683 Q 1728 235.516 1536 229.725 T 1152 164.718 T 768 161.721 T 384 106.987 T 0 57.1817 Z" fill="url(#lg-0.5493880661006536)" opacity="0.4" style="opacity:0.4;animation-play-state:paused" ></path>
<path d="M 0 0 M 0 823.529 Q 192 862.042 384 858.489 T 768 749.7 T 1152 698.85 T 1536 682.785 T 1920 699.596 L 1920 291.337 Q 1728 272.665 1536 264.174 T 1152 214.938 T 768 139.279 T 384 97.7666 T 0 73.109 Z" fill="url(#lg-0.5493880661006536)" opacity="0.4" style="opacity:0.4;animation-play-state:paused" ></path></g></svg>