<?xml version="1.0" encoding="utf-8"?><svg xmlns="http://www.w3.org/2000/svg" xmlns:xlink="http://www.w3.org/1999/xlink" width="464" height="922" preserveAspectRatio="xMidYMid" viewBox="0 0 464 922" style="z-index:1;margin-right:-2px;display:block;background-repeat-y:initial;background-repeat-x:initial;background-color:rgb(241, 242, 243);animation-play-state:paused" ><g transform="translate(232,461) scale(1,1) translate(-232,-461)" style="transform:matrix(1, 0, 0, 1, 0, 0);animation-play-state:paused" ><g id="bk-0.24915209759693124" style="animation-play-state:paused" ><path d="M 199 526 L 112 511 L 158 547 Z" stroke="#6240ec" fill="#6240ec" style="animation-play-state:paused" ></path>
<path d="M 112 511 L 92 575 L 158 547 Z" stroke="#0059ff" fill="#0059ff" style="animation-play-state:paused" ></path>
<path d="M 199 526 L 129 450 L 112 511 Z" stroke="#0061ff" fill="#0061ff" style="animation-play-state:paused" ></path>
<path d="M 112 511 L 77 534 L 92 575 Z" stroke="#0072ff" fill="#0072ff" style="animation-play-state:paused" ></path>
<path d="M 84 455 L 77 534 L 112 511 Z" stroke="#0086ff" fill="#0086ff" style="animation-play-state:paused" ></path>
<path d="M 129 450 L 84 455 L 112 511 Z" stroke="#0087ff" fill="#0087ff" style="animation-play-state:paused" ></path>
<path d="M 199 526 L 150 401 L 129 450 Z" stroke="#006eff" fill="#006eff" style="animation-play-state:paused" ></path>
<path d="M 129 450 L 47 389 L 84 455 Z" stroke="#00a1ff" fill="#00a1ff" style="animation-play-state:paused" ></path>
<path d="M 92 575 L 150 621 L 158 547 Z" stroke="#7b2bdc" fill="#7b2bdc" style="animation-play-state:paused" ></path>
<path d="M 158 547 L 225 612 L 199 526 Z" stroke="#7c23d4" fill="#7c23d4" style="animation-play-state:paused" ></path>
<path d="M 105 634 L 150 621 L 92 575 Z" stroke="#7c29dc" fill="#7c29dc" style="animation-play-state:paused" ></path>
<path d="M 225 612 L 277 541 L 199 526 Z" stroke="#7922d0" fill="#7922d0" style="animation-play-state:paused" ></path>
<path d="M 199 526 L 227 407 L 150 401 Z" stroke="#005fff" fill="#005fff" style="animation-play-state:paused" ></path>
<path d="M 150 621 L 225 612 L 158 547 Z" stroke="#7b23d3" fill="#7b23d3" style="animation-play-state:paused" ></path>
<path d="M 277 541 L 227 407 L 199 526 Z" stroke="#7d24d6" fill="#7d24d6" style="animation-play-state:paused" ></path>
<path d="M 200 377 L 130 396 L 150 401 Z" stroke="#008fff" fill="#008fff" style="animation-play-state:paused" ></path>
<path d="M 150 401 L 130 396 L 129 450 Z" stroke="#0090ff" fill="#0090ff" style="animation-play-state:paused" ></path>
<path d="M 0 520 L 43 585 L 77 534 Z" stroke="#0093ff" fill="#0093ff" style="animation-play-state:paused" ></path>
<path d="M 77 534 L 43 585 L 92 575 Z" stroke="#0078ff" fill="#0078ff" style="animation-play-state:paused" ></path>
<path d="M 43 585 L 105 634 L 92 575 Z" stroke="#0060ff" fill="#0060ff" style="animation-play-state:paused" ></path>
<path d="M 150 621 L 210 735 L 225 612 Z" stroke="#7620cc" fill="#7620cc" style="animation-play-state:paused" ></path>
<path d="M 227 407 L 200 377 L 150 401 Z" stroke="#007dff" fill="#007dff" style="animation-play-state:paused" ></path>
<path d="M 225 612 L 283 606 L 277 541 Z" stroke="#7520cb" fill="#7520cb" style="animation-play-state:paused" ></path>
<path d="M 353 598 L 314 490 L 277 541 Z" stroke="#751fca" fill="#751fca" style="animation-play-state:paused" ></path>
<path d="M 277 541 L 314 490 L 227 407 Z" stroke="#7b23d4" fill="#7b23d4" style="animation-play-state:paused" ></path>
<path d="M 227 407 L 229 344 L 200 377 Z" stroke="#0079ff" fill="#0079ff" style="animation-play-state:paused" ></path>
<path d="M -20 453 L 0 520 L 84 455 Z" stroke="#00b1f4" fill="#00b1f4" style="animation-play-state:paused" ></path>
<path d="M 84 455 L 0 520 L 77 534 Z" stroke="#009aff" fill="#009aff" style="animation-play-state:paused" ></path>
<path d="M 118 298 L 47 389 L 130 396 Z" stroke="#00b3ef" fill="#00b3ef" style="animation-play-state:paused" ></path>
<path d="M 130 396 L 47 389 L 129 450 Z" stroke="#00a1ff" fill="#00a1ff" style="animation-play-state:paused" ></path>
<path d="M -30 572 L 49 643 L 43 585 Z" stroke="#008dff" fill="#008dff" style="animation-play-state:paused" ></path>
<path d="M 43 585 L 49 643 L 105 634 Z" stroke="#0061ff" fill="#0061ff" style="animation-play-state:paused" ></path>
<path d="M 346 378 L 229 344 L 227 407 Z" stroke="#005eff" fill="#005eff" style="animation-play-state:paused" ></path>
<path d="M 200 377 L 203 317 L 130 396 Z" stroke="#0093ff" fill="#0093ff" style="animation-play-state:paused" ></path>
<path d="M 314 490 L 325 429 L 227 407 Z" stroke="#7d24d6" fill="#7d24d6" style="animation-play-state:paused" ></path>
<path d="M 47 389 L -20 453 L 84 455 Z" stroke="#00b6e8" fill="#00b6e8" style="animation-play-state:paused" ></path>
<path d="M 49 643 L 93 704 L 105 634 Z" stroke="#7333e2" fill="#7333e2" style="animation-play-state:paused" ></path>
<path d="M 105 634 L 93 704 L 150 621 Z" stroke="#7d24d6" fill="#7d24d6" style="animation-play-state:paused" ></path>
<path d="M 359 616 L 353 598 L 361 671 Z" stroke="#6c1bbe" fill="#6c1bbe" style="animation-play-state:paused" ></path>
<path d="M -114 551 L -30 572 L -114 490 Z" stroke="#00ce9f" fill="#00ce9f" style="animation-play-state:paused" ></path>
<path d="M 0 520 L -30 572 L 43 585 Z" stroke="#00a2ff" fill="#00a2ff" style="animation-play-state:paused" ></path>
<path d="M 49 643 L 65 748 L 93 704 Z" stroke="#7d28db" fill="#7d28db" style="animation-play-state:paused" ></path>
<path d="M 353 598 L 283 606 L 361 671 Z" stroke="#6e1cc0" fill="#6e1cc0" style="animation-play-state:paused" ></path>
<path d="M 283 606 L 353 598 L 277 541 Z" stroke="#731ec7" fill="#731ec7" style="animation-play-state:paused" ></path>
<path d="M 314 490 L 365 477 L 325 429 Z" stroke="#7922d0" fill="#7922d0" style="animation-play-state:paused" ></path>
<path d="M 229 344 L 203 317 L 200 377 Z" stroke="#008cff" fill="#008cff" style="animation-play-state:paused" ></path>
<path d="M 47 389 L -14 369 L -20 453 Z" stroke="#00c9b2" fill="#00c9b2" style="animation-play-state:paused" ></path>
<path d="M -114 490 L -30 572 L 0 520 Z" stroke="#00c2c9" fill="#00c2c9" style="animation-play-state:paused" ></path>
<path d="M 15 331 L -14 369 L 47 389 Z" stroke="#00cea0" fill="#00cea0" style="animation-play-state:paused" ></path>
<path d="M 353 598 L 365 477 L 314 490 Z" stroke="#741fca" fill="#741fca" style="animation-play-state:paused" ></path>
<path d="M 325 429 L 346 378 L 227 407 Z" stroke="#7f25d9" fill="#7f25d9" style="animation-play-state:paused" ></path>
<path d="M 229 344 L 245 283 L 203 317 Z" stroke="#0095ff" fill="#0095ff" style="animation-play-state:paused" ></path>
<path d="M 203 317 L 118 298 L 130 396 Z" stroke="#00a8ff" fill="#00a8ff" style="animation-play-state:paused" ></path>
<path d="M 426 467 L 346 378 L 325 429 Z" stroke="#7a23d2" fill="#7a23d2" style="animation-play-state:paused" ></path>
<path d="M -30 572 L -32 653 L 49 643 Z" stroke="#0095ff" fill="#0095ff" style="animation-play-state:paused" ></path>
<path d="M 265 745 L 283 606 L 225 612 Z" stroke="#711ec5" fill="#711ec5" style="animation-play-state:paused" ></path>
<path d="M 353 598 L 401 595 L 365 477 Z" stroke="#711dc4" fill="#711dc4" style="animation-play-state:paused" ></path>
<path d="M 93 704 L 210 735 L 150 621 Z" stroke="#7821cf" fill="#7821cf" style="animation-play-state:paused" ></path>
<path d="M 31 293 L 15 331 L 47 389 Z" stroke="#00cf9c" fill="#00cf9c" style="animation-play-state:paused" ></path>
<path d="M 303 272 L 245 283 L 229 344 Z" stroke="#008fff" fill="#008fff" style="animation-play-state:paused" ></path>
<path d="M 203 317 L 116 244 L 118 298 Z" stroke="#00badf" fill="#00badf" style="animation-play-state:paused" ></path>
<path d="M -2 735 L 65 748 L 49 643 Z" stroke="#3152fc" fill="#3152fc" style="animation-play-state:paused" ></path>
<path d="M 93 704 L 110 767 L 210 735 Z" stroke="#7721cd" fill="#7721cd" style="animation-play-state:paused" ></path>
<path d="M 210 735 L 265 745 L 225 612 Z" stroke="#711dc4" fill="#711dc4" style="animation-play-state:paused" ></path>
<path d="M 472 646 L 401 595 L 359 616 Z" stroke="#6a1abb" fill="#6a1abb" style="animation-play-state:paused" ></path>
<path d="M 359 616 L 401 595 L 353 598 Z" stroke="#6d1cbf" fill="#6d1cbf" style="animation-play-state:paused" ></path>
<path d="M 118 298 L 31 293 L 47 389 Z" stroke="#00c7b7" fill="#00c7b7" style="animation-play-state:paused" ></path>
<path d="M 116 244 L 31 293 L 118 298 Z" stroke="#00cca5" fill="#00cca5" style="animation-play-state:paused" ></path>
<path d="M 313 711 L 361 671 L 283 606 Z" stroke="#6c1bbe" fill="#6c1bbe" style="animation-play-state:paused" ></path>
<path d="M 265 745 L 313 711 L 283 606 Z" stroke="#6d1cbf" fill="#6d1cbf" style="animation-play-state:paused" ></path>
<path d="M 425 480 L 426 467 L 365 477 Z" stroke="#7520cb" fill="#7520cb" style="animation-play-state:paused" ></path>
<path d="M 365 477 L 426 467 L 325 429 Z" stroke="#7821ce" fill="#7821ce" style="animation-play-state:paused" ></path>
<path d="M 448 413 L 375 346 L 346 378 Z" stroke="#7d24d6" fill="#7d24d6" style="animation-play-state:paused" ></path>
<path d="M 346 378 L 303 272 L 229 344 Z" stroke="#0070ff" fill="#0070ff" style="animation-play-state:paused" ></path>
<path d="M 65 748 L 110 767 L 93 704 Z" stroke="#7b23d4" fill="#7b23d4" style="animation-play-state:paused" ></path>
<path d="M 210 735 L 217 820 L 265 745 Z" stroke="#6d1cbf" fill="#6d1cbf" style="animation-play-state:paused" ></path>
<path d="M 375 346 L 303 272 L 346 378 Z" stroke="#0058ff" fill="#0058ff" style="animation-play-state:paused" ></path>
<path d="M 401 595 L 425 480 L 365 477 Z" stroke="#721ec6" fill="#721ec6" style="animation-play-state:paused" ></path>
<path d="M 426 467 L 448 413 L 346 378 Z" stroke="#7922d0" fill="#7922d0" style="animation-play-state:paused" ></path>
<path d="M 193 233 L 203 317 L 245 283 Z" stroke="#00a8ff" fill="#00a8ff" style="animation-play-state:paused" ></path>
<path d="M 193 233 L 116 244 L 203 317 Z" stroke="#00b9e1" fill="#00b9e1" style="animation-play-state:paused" ></path>
<path d="M -114 490 L 0 520 L -20 453 Z" stroke="#00c8b3" fill="#00c8b3" style="animation-play-state:paused" ></path>
<path d="M -30 572 L -101 656 L -32 653 Z" stroke="#00b0f6" fill="#00b0f6" style="animation-play-state:paused" ></path>
<path d="M -32 653 L -2 735 L 49 643 Z" stroke="#007eff" fill="#007eff" style="animation-play-state:paused" ></path>
<path d="M -114 490 L -20 453 L -112 413 Z" stroke="#00da6d" fill="#00da6d" style="animation-play-state:paused" ></path>
<path d="M -20 453 L -14 369 L -104 366 Z" stroke="#00d972" fill="#00d972" style="animation-play-state:paused" ></path>
<path d="M -112 413 L -20 453 L -104 366 Z" stroke="#00de56" fill="#00de56" style="animation-play-state:paused" ></path>
<path d="M -38 772 L -2 735 L -32 653 Z" stroke="#0087ff" fill="#0087ff" style="animation-play-state:paused" ></path>
<path d="M 65 748 L 54 803 L 110 767 Z" stroke="#7b23d4" fill="#7b23d4" style="animation-play-state:paused" ></path>
<path d="M -114 551 L -101 656 L -30 572 Z" stroke="#00c3c6" fill="#00c3c6" style="animation-play-state:paused" ></path>
<path d="M 262 234 L 193 233 L 245 283 Z" stroke="#00acfd" fill="#00acfd" style="animation-play-state:paused" ></path>
<path d="M -104 366 L -14 369 L 15 331 Z" stroke="#00dc62" fill="#00dc62" style="animation-play-state:paused" ></path>
<path d="M -104 307 L -104 366 L 15 331 Z" stroke="#6fe331" fill="#6fe331" style="animation-play-state:paused" ></path>
<path d="M 33 218 L 6 260 L 31 293 Z" stroke="#00de53" fill="#00de53" style="animation-play-state:paused" ></path>
<path d="M 31 293 L 6 260 L 15 331 Z" stroke="#00da6b" fill="#00da6b" style="animation-play-state:paused" ></path>
<path d="M 33 218 L 31 293 L 116 244 Z" stroke="#00d973" fill="#00d973" style="animation-play-state:paused" ></path>
<path d="M 303 272 L 262 234 L 245 283 Z" stroke="#009cff" fill="#009cff" style="animation-play-state:paused" ></path>
<path d="M 535 433 L 448 413 L 425 480 Z" stroke="#7520cb" fill="#7520cb" style="animation-play-state:paused" ></path>
<path d="M 425 480 L 448 413 L 426 467 Z" stroke="#7620cb" fill="#7620cb" style="animation-play-state:paused" ></path>
<path d="M -2 735 L 54 803 L 65 748 Z" stroke="#772edf" fill="#772edf" style="animation-play-state:paused" ></path>
<path d="M 110 767 L 217 820 L 210 735 Z" stroke="#711ec5" fill="#711ec5" style="animation-play-state:paused" ></path>
<path d="M 105 837 L 217 820 L 110 767 Z" stroke="#731fc8" fill="#731fc8" style="animation-play-state:paused" ></path>
<path d="M 265 745 L 334 794 L 313 711 Z" stroke="#6819b8" fill="#6819b8" style="animation-play-state:paused" ></path>
<path d="M 334 794 L 386 716 L 313 711 Z" stroke="#6618b5" fill="#6618b5" style="animation-play-state:paused" ></path>
<path d="M 313 711 L 386 716 L 361 671 Z" stroke="#6819b7" fill="#6819b7" style="animation-play-state:paused" ></path>
<path d="M 361 671 L 472 646 L 359 616 Z" stroke="#6919b9" fill="#6919b9" style="animation-play-state:paused" ></path>
<path d="M 401 595 L 473 574 L 425 480 Z" stroke="#6e1cc1" fill="#6e1cc1" style="animation-play-state:paused" ></path>
<path d="M 472 646 L 473 574 L 401 595 Z" stroke="#6a1aba" fill="#6a1aba" style="animation-play-state:paused" ></path>
<path d="M 375 346 L 391 288 L 303 272 Z" stroke="#0069ff" fill="#0069ff" style="animation-play-state:paused" ></path>
<path d="M 303 272 L 319 221 L 262 234 Z" stroke="#009eff" fill="#009eff" style="animation-play-state:paused" ></path>
<path d="M 433 337 L 391 288 L 375 346 Z" stroke="#5c43ef" fill="#5c43ef" style="animation-play-state:paused" ></path>
<path d="M 289 821 L 334 794 L 265 745 Z" stroke="#6718b6" fill="#6718b6" style="animation-play-state:paused" ></path>
<path d="M 43 154 L 33 218 L 116 244 Z" stroke="#00df4f" fill="#00df4f" style="animation-play-state:paused" ></path>
<path d="M 6 260 L -104 307 L 15 331 Z" stroke="#4ae13f" fill="#4ae13f" style="animation-play-state:paused" ></path>
<path d="M 135 171 L 116 244 L 193 233 Z" stroke="#00cda4" fill="#00cda4" style="animation-play-state:paused" ></path>
<path d="M 217 820 L 289 821 L 265 745 Z" stroke="#6a1aba" fill="#6a1aba" style="animation-play-state:paused" ></path>
<path d="M -2 735 L 11 815 L 54 803 Z" stroke="#6240ec" fill="#6240ec" style="animation-play-state:paused" ></path>
<path d="M -108 702 L -38 772 L -32 653 Z" stroke="#00a1ff" fill="#00a1ff" style="animation-play-state:paused" ></path>
<path d="M 448 413 L 433 337 L 375 346 Z" stroke="#7d24d6" fill="#7d24d6" style="animation-play-state:paused" ></path>
<path d="M 190 156 L 135 171 L 193 233 Z" stroke="#00ce9d" fill="#00ce9d" style="animation-play-state:paused" ></path>
<path d="M 391 288 L 319 221 L 303 272 Z" stroke="#0089ff" fill="#0089ff" style="animation-play-state:paused" ></path>
<path d="M 262 234 L 190 156 L 193 233 Z" stroke="#00bfd0" fill="#00bfd0" style="animation-play-state:paused" ></path>
<path d="M -114 551 L -108 702 L -101 656 Z" stroke="#00c6bb" fill="#00c6bb" style="animation-play-state:paused" ></path>
<path d="M -101 656 L -108 702 L -32 653 Z" stroke="#00b4ed" fill="#00b4ed" style="animation-play-state:paused" ></path>
<path d="M 11 815 L 105 837 L 54 803 Z" stroke="#7c23d4" fill="#7c23d4" style="animation-play-state:paused" ></path>
<path d="M 54 803 L 105 837 L 110 767 Z" stroke="#7922d0" fill="#7922d0" style="animation-play-state:paused" ></path>
<path d="M 217 820 L 253 850 L 289 821 Z" stroke="#6819b8" fill="#6819b8" style="animation-play-state:paused" ></path>
<path d="M -73 189 L -104 307 L 6 260 Z" stroke="#d0e400" fill="#d0e400" style="animation-play-state:paused" ></path>
<path d="M -104 366 L -104 307 L -112 413 Z" stroke="#a8e40f" fill="#a8e40f" style="animation-play-state:paused" ></path>
<path d="M 386 716 L 472 646 L 361 671 Z" stroke="#6618b5" fill="#6618b5" style="animation-play-state:paused" ></path>
<path d="M 464 704 L 472 646 L 386 716 Z" stroke="#6417b2" fill="#6417b2" style="animation-play-state:paused" ></path>
<path d="M -75 810 L 11 815 L -38 772 Z" stroke="#0079ff" fill="#0079ff" style="animation-play-state:paused" ></path>
<path d="M -38 772 L 11 815 L -2 735 Z" stroke="#006aff" fill="#006aff" style="animation-play-state:paused" ></path>
<path d="M 218 113 L 190 156 L 262 234 Z" stroke="#00c9b1" fill="#00c9b1" style="animation-play-state:paused" ></path>
<path d="M 135 171 L 43 154 L 116 244 Z" stroke="#00dc60" fill="#00dc60" style="animation-play-state:paused" ></path>
<path d="M 217 878 L 253 850 L 217 820 Z" stroke="#691aba" fill="#691aba" style="animation-play-state:paused" ></path>
<path d="M 289 821 L 309 837 L 334 794 Z" stroke="#6416b2" fill="#6416b2" style="animation-play-state:paused" ></path>
<path d="M 253 850 L 309 837 L 289 821 Z" stroke="#6517b4" fill="#6517b4" style="animation-play-state:paused" ></path>
<path d="M 403 799 L 464 704 L 386 716 Z" stroke="#6215ae" fill="#6215ae" style="animation-play-state:paused" ></path>
<path d="M 403 799 L 386 716 L 334 794 Z" stroke="#6215af" fill="#6215af" style="animation-play-state:paused" ></path>
<path d="M 518 622 L 473 574 L 472 646 Z" stroke="#6819b7" fill="#6819b7" style="animation-play-state:paused" ></path>
<path d="M 518 622 L 520 567 L 473 574 Z" stroke="#6a1aba" fill="#6a1aba" style="animation-play-state:paused" ></path>
<path d="M 473 574 L 520 567 L 425 480 Z" stroke="#6e1cc0" fill="#6e1cc0" style="animation-play-state:paused" ></path>
<path d="M 448 413 L 513 347 L 433 337 Z" stroke="#7b23d4" fill="#7b23d4" style="animation-play-state:paused" ></path>
<path d="M 548 723 L 518 622 L 472 646 Z" stroke="#6416b1" fill="#6416b1" style="animation-play-state:paused" ></path>
<path d="M 391 288 L 423 255 L 319 221 Z" stroke="#0081ff" fill="#0081ff" style="animation-play-state:paused" ></path>
<path d="M 302 140 L 218 113 L 262 234 Z" stroke="#00c3c5" fill="#00c3c5" style="animation-play-state:paused" ></path>
<path d="M 433 337 L 423 255 L 391 288 Z" stroke="#005aff" fill="#005aff" style="animation-play-state:paused" ></path>
<path d="M 472 312 L 423 255 L 433 337 Z" stroke="#4f49f4" fill="#4f49f4" style="animation-play-state:paused" ></path>
<path d="M 390 844 L 403 799 L 334 794 Z" stroke="#5f14ab" fill="#5f14ab" style="animation-play-state:paused" ></path>
<path d="M 65 95 L 43 154 L 135 171 Z" stroke="#86e325" fill="#86e325" style="animation-play-state:paused" ></path>
<path d="M 33 218 L -18 175 L 6 260 Z" stroke="#8ce422" fill="#8ce422" style="animation-play-state:paused" ></path>
<path d="M 253 850 L 287 895 L 309 837 Z" stroke="#6417b2" fill="#6417b2" style="animation-play-state:paused" ></path>
<path d="M 105 837 L 217 878 L 217 820 Z" stroke="#6e1cc1" fill="#6e1cc1" style="animation-play-state:paused" ></path>
<path d="M 97 890 L 217 878 L 105 837 Z" stroke="#711ec5" fill="#711ec5" style="animation-play-state:paused" ></path>
<path d="M 520 567 L 535 433 L 425 480 Z" stroke="#711ec5" fill="#711ec5" style="animation-play-state:paused" ></path>
<path d="M -108 702 L -75 810 L -38 772 Z" stroke="#009fff" fill="#009fff" style="animation-play-state:paused" ></path>
<path d="M 11 815 L 97 890 L 105 837 Z" stroke="#7922d0" fill="#7922d0" style="animation-play-state:paused" ></path>
<path d="M 513 347 L 472 312 L 433 337 Z" stroke="#7e24d7" fill="#7e24d7" style="animation-play-state:paused" ></path>
<path d="M 43 154 L -18 175 L 33 218 Z" stroke="#abe40d" fill="#abe40d" style="animation-play-state:paused" ></path>
<path d="M 535 433 L 513 347 L 448 413 Z" stroke="#7821cf" fill="#7821cf" style="animation-play-state:paused" ></path>
<path d="M 302 140 L 262 234 L 319 221 Z" stroke="#00b0f6" fill="#00b0f6" style="animation-play-state:paused" ></path>
<path d="M 190 156 L 198 108 L 135 171 Z" stroke="#00d877" fill="#00d877" style="animation-play-state:paused" ></path>
<path d="M 43 154 L 65 95 L -18 175 Z" stroke="#d3e400" fill="#d3e400" style="animation-play-state:paused" ></path>
<path d="M -75 810 L -22 853 L 11 815 Z" stroke="#006cff" fill="#006cff" style="animation-play-state:paused" ></path>
<path d="M -18 175 L -73 189 L 6 260 Z" stroke="#d6e300" fill="#d6e300" style="animation-play-state:paused" ></path>
<path d="M -22 853 L 97 890 L 11 815 Z" stroke="#7d24d6" fill="#7d24d6" style="animation-play-state:paused" ></path>
<path d="M 518 622 L 552 528 L 520 567 Z" stroke="#6a1abb" fill="#6a1abb" style="animation-play-state:paused" ></path>
<path d="M 520 567 L 552 528 L 535 433 Z" stroke="#6f1dc2" fill="#6f1dc2" style="animation-play-state:paused" ></path>
<path d="M 566 251 L 532 291 L 513 347 Z" stroke="#7035e4" fill="#7035e4" style="animation-play-state:paused" ></path>
<path d="M 548 723 L 552 528 L 518 622 Z" stroke="#6618b5" fill="#6618b5" style="animation-play-state:paused" ></path>
<path d="M 285 953 L 287 895 L 217 878 Z" stroke="#6416b1" fill="#6416b1" style="animation-play-state:paused" ></path>
<path d="M 217 878 L 287 895 L 253 850 Z" stroke="#6618b5" fill="#6618b5" style="animation-play-state:paused" ></path>
<path d="M 309 837 L 390 844 L 334 794 Z" stroke="#6115ad" fill="#6115ad" style="animation-play-state:paused" ></path>
<path d="M 245 91 L 198 108 L 218 113 Z" stroke="#00d971" fill="#00d971" style="animation-play-state:paused" ></path>
<path d="M 218 113 L 198 108 L 190 156 Z" stroke="#00d779" fill="#00d779" style="animation-play-state:paused" ></path>
<path d="M 409 159 L 302 140 L 319 221 Z" stroke="#00aff7" fill="#00aff7" style="animation-play-state:paused" ></path>
<path d="M 409 159 L 319 221 L 423 255 Z" stroke="#0097ff" fill="#0097ff" style="animation-play-state:paused" ></path>
<path d="M 403 799 L 475 803 L 464 704 Z" stroke="#5e13a9" fill="#5e13a9" style="animation-play-state:paused" ></path>
<path d="M 464 704 L 548 723 L 472 646 Z" stroke="#6215af" fill="#6215af" style="animation-play-state:paused" ></path>
<path d="M 287 895 L 390 844 L 309 837 Z" stroke="#6014ac" fill="#6014ac" style="animation-play-state:paused" ></path>
<path d="M 532 291 L 467 208 L 472 312 Z" stroke="#005aff" fill="#005aff" style="animation-play-state:paused" ></path>
<path d="M 472 312 L 467 208 L 423 255 Z" stroke="#006cff" fill="#006cff" style="animation-play-state:paused" ></path>
<path d="M -73 189 L -128 196 L -104 307 Z" stroke="#f1da00" fill="#f1da00" style="animation-play-state:paused" ></path>
<path d="M -104 307 L -128 196 L -112 413 Z" stroke="#f2e205" fill="#f2e205" style="animation-play-state:paused" ></path>
<path d="M -112 413 L -128 196 L -114 490 Z" stroke="#bae401" fill="#bae401" style="animation-play-state:paused" ></path>
<path d="M -108 55 L -128 196 L -73 189 Z" stroke="#efce00" fill="#efce00" style="animation-play-state:paused" ></path>
<path d="M 88 71 L 65 95 L 135 171 Z" stroke="#9ce418" fill="#9ce418" style="animation-play-state:paused" ></path>
<path d="M -18 175 L -49 65 L -73 189 Z" stroke="#f1d800" fill="#f1d800" style="animation-play-state:paused" ></path>
<path d="M 464 841 L 475 803 L 403 799 Z" stroke="#5b12a4" fill="#5b12a4" style="animation-play-state:paused" ></path>
<path d="M 467 208 L 409 159 L 423 255 Z" stroke="#008fff" fill="#008fff" style="animation-play-state:paused" ></path>
<path d="M 97 890 L 184 925 L 217 878 Z" stroke="#6e1cc0" fill="#6e1cc0" style="animation-play-state:paused" ></path>
<path d="M 448 893 L 464 841 L 390 844 Z" stroke="#58109f" fill="#58109f" style="animation-play-state:paused" ></path>
<path d="M -75 810 L -110 826 L -22 853 Z" stroke="#008eff" fill="#008eff" style="animation-play-state:paused" ></path>
<path d="M -22 853 L 54 922 L 97 890 Z" stroke="#7b23d3" fill="#7b23d3" style="animation-play-state:paused" ></path>
<path d="M -108 702 L -110 826 L -75 810 Z" stroke="#00a9ff" fill="#00a9ff" style="animation-play-state:paused" ></path>
<path d="M -114 551 L -110 826 L -108 702 Z" stroke="#00bed3" fill="#00bed3" style="animation-play-state:paused" ></path>
<path d="M -129 905 L -110 826 L -114 551 Z" stroke="#00b7e6" fill="#00b7e6" style="animation-play-state:paused" ></path>
<path d="M 566 251 L 513 347 L 535 433 Z" stroke="#7c23d5" fill="#7c23d5" style="animation-play-state:paused" ></path>
<path d="M 513 347 L 532 291 L 472 312 Z" stroke="#7f25d8" fill="#7f25d8" style="animation-play-state:paused" ></path>
<path d="M -23 933 L 54 922 L -22 853 Z" stroke="#7f25d8" fill="#7f25d8" style="animation-play-state:paused" ></path>
<path d="M 97 890 L 116 1000 L 184 925 Z" stroke="#701dc3" fill="#701dc3" style="animation-play-state:paused" ></path>
<path d="M 302 140 L 245 91 L 218 113 Z" stroke="#00d192" fill="#00d192" style="animation-play-state:paused" ></path>
<path d="M 198 108 L 88 71 L 135 171 Z" stroke="#40e142" fill="#40e142" style="animation-play-state:paused" ></path>
<path d="M 329 101 L 245 91 L 302 140 Z" stroke="#00cca4" fill="#00cca4" style="animation-play-state:paused" ></path>
<path d="M 475 803 L 548 723 L 464 704 Z" stroke="#5e13a9" fill="#5e13a9" style="animation-play-state:paused" ></path>
<path d="M 409 159 L 329 101 L 302 140 Z" stroke="#00bdd7" fill="#00bdd7" style="animation-play-state:paused" ></path>
<path d="M 129 35 L 88 71 L 198 108 Z" stroke="#a2e414" fill="#a2e414" style="animation-play-state:paused" ></path>
<path d="M 65 95 L -49 65 L -18 175 Z" stroke="#f1dc00" fill="#f1dc00" style="animation-play-state:paused" ></path>
<path d="M 390 844 L 464 841 L 403 799 Z" stroke="#5c12a5" fill="#5c12a5" style="animation-play-state:paused" ></path>
<path d="M 475 803 L 553 798 L 548 723 Z" stroke="#5b12a4" fill="#5b12a4" style="animation-play-state:paused" ></path>
<path d="M 407 931 L 390 844 L 287 895 Z" stroke="#5c12a6" fill="#5c12a6" style="animation-play-state:paused" ></path>
<path d="M -129 905 L -23 933 L -22 853 Z" stroke="#0077ff" fill="#0077ff" style="animation-play-state:paused" ></path>
<path d="M 302 971 L 285 953 L 266 1015 Z" stroke="#5f14ab" fill="#5f14ab" style="animation-play-state:paused" ></path>
<path d="M 184 925 L 285 953 L 217 878 Z" stroke="#6718b6" fill="#6718b6" style="animation-play-state:paused" ></path>
<path d="M 464 841 L 502 813 L 475 803 Z" stroke="#5811a0" fill="#5811a0" style="animation-play-state:paused" ></path>
<path d="M 467 208 L 444 127 L 409 159 Z" stroke="#00a3ff" fill="#00a3ff" style="animation-play-state:paused" ></path>
<path d="M 409 159 L 384 70 L 329 101 Z" stroke="#00c1cc" fill="#00c1cc" style="animation-play-state:paused" ></path>
<path d="M 480 110 L 444 127 L 467 208 Z" stroke="#00a7ff" fill="#00a7ff" style="animation-play-state:paused" ></path>
<path d="M 552 528 L 566 251 L 535 433 Z" stroke="#7721ce" fill="#7721ce" style="animation-play-state:paused" ></path>
<path d="M 532 291 L 566 251 L 467 208 Z" stroke="#0067ff" fill="#0067ff" style="animation-play-state:paused" ></path>
<path d="M 202 40 L 129 35 L 198 108 Z" stroke="#7fe329" fill="#7fe329" style="animation-play-state:paused" ></path>
<path d="M 38 -1 L -49 65 L 65 95 Z" stroke="#f0d600" fill="#f0d600" style="animation-play-state:paused" ></path>
<path d="M 202 40 L 198 108 L 245 91 Z" stroke="#00de55" fill="#00de55" style="animation-play-state:paused" ></path>
<path d="M 202 40 L 245 91 L 262 22 Z" stroke="#28e047" fill="#28e047" style="animation-play-state:paused" ></path>
<path d="M 262 22 L 245 91 L 329 101 Z" stroke="#00d875" fill="#00d875" style="animation-play-state:paused" ></path>
<path d="M -128 196 L -129 905 L -114 490 Z" stroke="#00da6a" fill="#00da6a" style="animation-play-state:paused" ></path>
<path d="M -114 490 L -129 905 L -114 551 Z" stroke="#00c9b2" fill="#00c9b2" style="animation-play-state:paused" ></path>
<path d="M -110 826 L -129 905 L -22 853 Z" stroke="#0095ff" fill="#0095ff" style="animation-play-state:paused" ></path>
<path d="M 192 1000 L 285 953 L 184 925 Z" stroke="#6618b5" fill="#6618b5" style="animation-play-state:paused" ></path>
<path d="M 285 953 L 302 971 L 287 895 Z" stroke="#6014ac" fill="#6014ac" style="animation-play-state:paused" ></path>
<path d="M 464 841 L 530 916 L 502 813 Z" stroke="#540f98" fill="#540f98" style="animation-play-state:paused" ></path>
<path d="M 116 1000 L 97 890 L 54 922 Z" stroke="#741fca" fill="#741fca" style="animation-play-state:paused" ></path>
<path d="M 407 931 L 448 893 L 390 844 Z" stroke="#57109d" fill="#57109d" style="animation-play-state:paused" ></path>
<path d="M 530 916 L 553 798 L 502 813 Z" stroke="#540f98" fill="#540f98" style="animation-play-state:paused" ></path>
<path d="M 502 813 L 553 798 L 475 803 Z" stroke="#5811a0" fill="#5811a0" style="animation-play-state:paused" ></path>
<path d="M 548 723 L 553 798 L 552 528 Z" stroke="#6215ae" fill="#6215ae" style="animation-play-state:paused" ></path>
<path d="M 444 127 L 384 70 L 409 159 Z" stroke="#00b9e2" fill="#00b9e2" style="animation-play-state:paused" ></path>
<path d="M 301 -16 L 262 22 L 329 101 Z" stroke="#00dd5b" fill="#00dd5b" style="animation-play-state:paused" ></path>
<path d="M 58 -48 L 38 -1 L 129 35 Z" stroke="#f0d500" fill="#f0d500" style="animation-play-state:paused" ></path>
<path d="M -57 969 L 45 993 L -23 933 Z" stroke="#7f25d8" fill="#7f25d8" style="animation-play-state:paused" ></path>
<path d="M -23 933 L 45 993 L 54 922 Z" stroke="#7b23d3" fill="#7b23d3" style="animation-play-state:paused" ></path>
<path d="M 302 971 L 407 931 L 287 895 Z" stroke="#5d12a7" fill="#5d12a7" style="animation-play-state:paused" ></path>
<path d="M 448 893 L 530 916 L 464 841 Z" stroke="#520f95" fill="#520f95" style="animation-play-state:paused" ></path>
<path d="M 45 993 L 116 1000 L 54 922 Z" stroke="#7520cb" fill="#7520cb" style="animation-play-state:paused" ></path>
<path d="M 116 1000 L 192 1000 L 184 925 Z" stroke="#6b1bbd" fill="#6b1bbd" style="animation-play-state:paused" ></path>
<path d="M 302 971 L 377 987 L 407 931 Z" stroke="#57109e" fill="#57109e" style="animation-play-state:paused" ></path>
<path d="M 38 -1 L 65 95 L 88 71 Z" stroke="#f1dd01" fill="#f1dd01" style="animation-play-state:paused" ></path>
<path d="M -129 905 L -57 969 L -23 933 Z" stroke="#007aff" fill="#007aff" style="animation-play-state:paused" ></path>
<path d="M 444 127 L 480 110 L 384 70 Z" stroke="#00bcd9" fill="#00bcd9" style="animation-play-state:paused" ></path>
<path d="M 566 251 L 556 176 L 467 208 Z" stroke="#0081ff" fill="#0081ff" style="animation-play-state:paused" ></path>
<path d="M 556 176 L 480 110 L 467 208 Z" stroke="#009cff" fill="#009cff" style="animation-play-state:paused" ></path>
<path d="M 377 3 L 301 -16 L 329 101 Z" stroke="#00db67" fill="#00db67" style="animation-play-state:paused" ></path>
<path d="M 266 1015 L 377 987 L 302 971 Z" stroke="#5c12a5" fill="#5c12a5" style="animation-play-state:paused" ></path>
<path d="M 407 931 L 426 952 L 448 893 Z" stroke="#530f96" fill="#530f96" style="animation-play-state:paused" ></path>
<path d="M -49 65 L -108 55 L -73 189 Z" stroke="#efcd00" fill="#efcd00" style="animation-play-state:paused" ></path>
<path d="M 216 1034 L 266 1015 L 192 1000 Z" stroke="#6417b2" fill="#6417b2" style="animation-play-state:paused" ></path>
<path d="M 192 1000 L 266 1015 L 285 953 Z" stroke="#6216af" fill="#6216af" style="animation-play-state:paused" ></path>
<path d="M 377 987 L 426 952 L 407 931 Z" stroke="#530f96" fill="#530f96" style="animation-play-state:paused" ></path>
<path d="M 129 35 L 38 -1 L 88 71 Z" stroke="#f1dd01" fill="#f1dd01" style="animation-play-state:paused" ></path>
<path d="M -49 65 L -105 20 L -108 55 Z" stroke="#edc300" fill="#edc300" style="animation-play-state:paused" ></path>
<path d="M 58 -48 L 129 35 L 79 -77 Z" stroke="#f0d300" fill="#f0d300" style="animation-play-state:paused" ></path>
<path d="M 156 1051 L 192 1000 L 116 1000 Z" stroke="#6b1bbc" fill="#6b1bbc" style="animation-play-state:paused" ></path>
<path d="M 156 1051 L 216 1034 L 192 1000 Z" stroke="#6818b7" fill="#6818b7" style="animation-play-state:paused" ></path>
<path d="M 111 1059 L 116 1000 L 45 993 Z" stroke="#721ec7" fill="#721ec7" style="animation-play-state:paused" ></path>
<path d="M 111 1059 L 156 1051 L 116 1000 Z" stroke="#6e1cc0" fill="#6e1cc0" style="animation-play-state:paused" ></path>
<path d="M 377 3 L 329 101 L 384 70 Z" stroke="#00d191" fill="#00d191" style="animation-play-state:paused" ></path>
<path d="M 262 22 L 227 -85 L 202 40 Z" stroke="#b8e403" fill="#b8e403" style="animation-play-state:paused" ></path>
<path d="M -129 905 L -116 980 L -57 969 Z" stroke="#0091ff" fill="#0091ff" style="animation-play-state:paused" ></path>
<path d="M 61 1082 L 111 1059 L 45 993 Z" stroke="#741fc9" fill="#741fc9" style="animation-play-state:paused" ></path>
<path d="M -9 -43 L -31 9 L 38 -1 Z" stroke="#eec900" fill="#eec900" style="animation-play-state:paused" ></path>
<path d="M 38 -1 L -31 9 L -49 65 Z" stroke="#efcc00" fill="#efcc00" style="animation-play-state:paused" ></path>
<path d="M 421 -32 L 377 3 L 384 70 Z" stroke="#00d96f" fill="#00d96f" style="animation-play-state:paused" ></path>
<path d="M 61 1082 L 45 993 L -23 1053 Z" stroke="#7922d0" fill="#7922d0" style="animation-play-state:paused" ></path>
<path d="M 156 1051 L 190 1137 L 216 1034 Z" stroke="#6718b6" fill="#6718b6" style="animation-play-state:paused" ></path>
<path d="M 525 993 L 530 916 L 426 952 Z" stroke="#4b0c89" fill="#4b0c89" style="animation-play-state:paused" ></path>
<path d="M 426 952 L 530 916 L 448 893 Z" stroke="#500e91" fill="#500e91" style="animation-play-state:paused" ></path>
<path d="M -31 9 L -105 20 L -49 65 Z" stroke="#edc500" fill="#edc500" style="animation-play-state:paused" ></path>
<path d="M 163 -84 L 202 40 L 227 -85 Z" stroke="#f2df02" fill="#f2df02" style="animation-play-state:paused" ></path>
<path d="M 163 -84 L 129 35 L 202 40 Z" stroke="#f2e205" fill="#f2e205" style="animation-play-state:paused" ></path>
<path d="M -31 9 L -65 -96 L -105 20 Z" stroke="#ebbc00" fill="#ebbc00" style="animation-play-state:paused" ></path>
<path d="M 58 -48 L -9 -43 L 38 -1 Z" stroke="#eeca00" fill="#eeca00" style="animation-play-state:paused" ></path>
<path d="M 556 176 L 510 52 L 480 110 Z" stroke="#00b2f2" fill="#00b2f2" style="animation-play-state:paused" ></path>
<path d="M 480 110 L 498 42 L 384 70 Z" stroke="#00c4c2" fill="#00c4c2" style="animation-play-state:paused" ></path>
<path d="M 510 52 L 498 42 L 480 110 Z" stroke="#00c3c4" fill="#00c3c4" style="animation-play-state:paused" ></path>
<path d="M 421 -32 L 336 -38 L 377 3 Z" stroke="#3be143" fill="#3be143" style="animation-play-state:paused" ></path>
<path d="M 377 3 L 336 -38 L 301 -16 Z" stroke="#5ce239" fill="#5ce239" style="animation-play-state:paused" ></path>
<path d="M -23 1053 L 45 993 L -57 969 Z" stroke="#7e24d7" fill="#7e24d7" style="animation-play-state:paused" ></path>
<path d="M 343 1078 L 266 1015 L 249 1138 Z" stroke="#5c12a6" fill="#5c12a6" style="animation-play-state:paused" ></path>
<path d="M 266 1015 L 369 1054 L 377 987 Z" stroke="#57109e" fill="#57109e" style="animation-play-state:paused" ></path>
<path d="M 377 987 L 369 1054 L 426 952 Z" stroke="#520e94" fill="#520e94" style="animation-play-state:paused" ></path>
<path d="M 343 1078 L 369 1054 L 266 1015 Z" stroke="#58109e" fill="#58109e" style="animation-play-state:paused" ></path>
<path d="M 266 1015 L 216 1034 L 249 1138 Z" stroke="#6115ad" fill="#6115ad" style="animation-play-state:paused" ></path>
<path d="M -111 1046 L -23 1053 L -57 969 Z" stroke="#0065ff" fill="#0065ff" style="animation-play-state:paused" ></path>
<path d="M 227 -85 L 262 22 L 301 -16 Z" stroke="#b7e403" fill="#b7e403" style="animation-play-state:paused" ></path>
<path d="M 58 -48 L -10 -111 L -9 -43 Z" stroke="#ecc200" fill="#ecc200" style="animation-play-state:paused" ></path>
<path d="M 190 1137 L 156 1051 L 111 1059 Z" stroke="#6a1abb" fill="#6a1abb" style="animation-play-state:paused" ></path>
<path d="M 498 42 L 421 -32 L 384 70 Z" stroke="#00d389" fill="#00d389" style="animation-play-state:paused" ></path>
<path d="M 336 -38 L 227 -85 L 301 -16 Z" stroke="#c2e400" fill="#c2e400" style="animation-play-state:paused" ></path>
<path d="M 163 -84 L 79 -77 L 129 35 Z" stroke="#f0d600" fill="#f0d600" style="animation-play-state:paused" ></path>
<path d="M -9 -43 L -65 -96 L -31 9 Z" stroke="#ebbe00" fill="#ebbe00" style="animation-play-state:paused" ></path>
<path d="M -129 905 L -111 1046 L -116 980 Z" stroke="#009bff" fill="#009bff" style="animation-play-state:paused" ></path>
<path d="M -116 980 L -111 1046 L -57 969 Z" stroke="#0086ff" fill="#0086ff" style="animation-play-state:paused" ></path>
<path d="M 214 -98 L 227 -85 L 222 -167 Z" stroke="#f0d400" fill="#f0d400" style="animation-play-state:paused" ></path>
<path d="M 163 -84 L 149 -92 L 79 -77 Z" stroke="#efd000" fill="#efd000" style="animation-play-state:paused" ></path>
<path d="M 214 -98 L 149 -92 L 163 -84 Z" stroke="#f0d400" fill="#f0d400" style="animation-play-state:paused" ></path>
<path d="M 487 1089 L 525 993 L 426 952 Z" stroke="#470b82" fill="#470b82" style="animation-play-state:paused" ></path>
<path d="M 530 916 L 574 1087 L 553 798 Z" stroke="#4a0c87" fill="#4a0c87" style="animation-play-state:paused" ></path>
<path d="M 487 1089 L 426 952 L 369 1054 Z" stroke="#4b0c89" fill="#4b0c89" style="animation-play-state:paused" ></path>
<path d="M 368 -86 L 227 -85 L 336 -38 Z" stroke="#d7e300" fill="#d7e300" style="animation-play-state:paused" ></path>
<path d="M 227 -85 L 214 -98 L 163 -84 Z" stroke="#f1d700" fill="#f1d700" style="animation-play-state:paused" ></path>
<path d="M 498 42 L 485 -43 L 421 -32 Z" stroke="#00da6a" fill="#00da6a" style="animation-play-state:paused" ></path>
<path d="M 510 52 L 533 38 L 498 42 Z" stroke="#00caae" fill="#00caae" style="animation-play-state:paused" ></path>
<path d="M 556 176 L 533 38 L 510 52 Z" stroke="#00bade" fill="#00bade" style="animation-play-state:paused" ></path>
<path d="M 566 251 L 533 38 L 556 176 Z" stroke="#009eff" fill="#009eff" style="animation-play-state:paused" ></path>
<path d="M 125 1145 L 111 1059 L 61 1082 Z" stroke="#701dc3" fill="#701dc3" style="animation-play-state:paused" ></path>
<path d="M 125 1145 L 190 1137 L 111 1059 Z" stroke="#6b1abc" fill="#6b1abc" style="animation-play-state:paused" ></path>
<path d="M 35 1113 L 61 1082 L -23 1053 Z" stroke="#7922d0" fill="#7922d0" style="animation-play-state:paused" ></path>
<path d="M 6 1177 L 35 1113 L -92 1145 Z" stroke="#7d24d6" fill="#7d24d6" style="animation-play-state:paused" ></path>
<path d="M 421 -32 L 368 -86 L 336 -38 Z" stroke="#8ae323" fill="#8ae323" style="animation-play-state:paused" ></path>
<path d="M 427 -105 L 368 -86 L 421 -32 Z" stroke="#a2e414" fill="#a2e414" style="animation-play-state:paused" ></path>
<path d="M 533 38 L 485 -43 L 498 42 Z" stroke="#00d38a" fill="#00d38a" style="animation-play-state:paused" ></path>
<path d="M 190 1137 L 249 1138 L 216 1034 Z" stroke="#6316b0" fill="#6316b0" style="animation-play-state:paused" ></path>
<path d="M 343 1078 L 406 1147 L 369 1054 Z" stroke="#4f0e90" fill="#4f0e90" style="animation-play-state:paused" ></path>
<path d="M 125 1145 L 249 1138 L 190 1137 Z" stroke="#6618b4" fill="#6618b4" style="animation-play-state:paused" ></path>
<path d="M -1 -153 L 79 -77 L 60 -174 Z" stroke="#ebbc00" fill="#ebbc00" style="animation-play-state:paused" ></path>
<path d="M -1 -153 L -10 -111 L 79 -77 Z" stroke="#ebbc00" fill="#ebbc00" style="animation-play-state:paused" ></path>
<path d="M 79 -77 L -10 -111 L 58 -48 Z" stroke="#edc500" fill="#edc500" style="animation-play-state:paused" ></path>
<path d="M -10 -111 L -65 -96 L -9 -43 Z" stroke="#eab900" fill="#eab900" style="animation-play-state:paused" ></path>
<path d="M 35 1113 L 125 1145 L 61 1082 Z" stroke="#731fc7" fill="#731fc7" style="animation-play-state:paused" ></path>
<path d="M 406 1147 L 319 1129 L 482 1152 Z" stroke="#4a0c87" fill="#4a0c87" style="animation-play-state:paused" ></path>
<path d="M 249 1138 L 319 1129 L 343 1078 Z" stroke="#5911a0" fill="#5911a0" style="animation-play-state:paused" ></path>
<path d="M -108 -210 L -132 -77 L -65 -96 Z" stroke="#e4a700" fill="#e4a700" style="animation-play-state:paused" ></path>
<path d="M -65 -96 L -132 -77 L -105 20 Z" stroke="#e8b300" fill="#e8b300" style="animation-play-state:paused" ></path>
<path d="M -105 20 L -132 -77 L -108 55 Z" stroke="#e9b700" fill="#e9b700" style="animation-play-state:paused" ></path>
<path d="M -108 55 L -132 -77 L -128 196 Z" stroke="#ebbe00" fill="#ebbe00" style="animation-play-state:paused" ></path>
<path d="M 406 1147 L 487 1089 L 369 1054 Z" stroke="#490b85" fill="#490b85" style="animation-play-state:paused" ></path>
<path d="M 285 -173 L 222 -167 L 227 -85 Z" stroke="#f0d200" fill="#f0d200" style="animation-play-state:paused" ></path>
<path d="M 214 -98 L 222 -167 L 149 -92 Z" stroke="#f0d100" fill="#f0d100" style="animation-play-state:paused" ></path>
<path d="M 485 -43 L 427 -105 L 421 -32 Z" stroke="#70e330" fill="#70e330" style="animation-play-state:paused" ></path>
<path d="M 285 -173 L 227 -85 L 368 -86 Z" stroke="#f1db00" fill="#f1db00" style="animation-play-state:paused" ></path>
<path d="M 482 1152 L 319 1129 L 249 1138 Z" stroke="#510e94" fill="#510e94" style="animation-play-state:paused" ></path>
<path d="M 319 1129 L 406 1147 L 343 1078 Z" stroke="#510e93" fill="#510e93" style="animation-play-state:paused" ></path>
<path d="M 35 1113 L 6 1177 L 125 1145 Z" stroke="#7520ca" fill="#7520ca" style="animation-play-state:paused" ></path>
<path d="M 125 1145 L 482 1152 L 249 1138 Z" stroke="#5b12a4" fill="#5b12a4" style="animation-play-state:paused" ></path>
<path d="M -92 1145 L 35 1113 L -23 1053 Z" stroke="#7e25d8" fill="#7e25d8" style="animation-play-state:paused" ></path>
<path d="M -111 1046 L -92 1145 L -23 1053 Z" stroke="#006bff" fill="#006bff" style="animation-play-state:paused" ></path>
<path d="M 135 -192 L 79 -77 L 149 -92 Z" stroke="#eec800" fill="#eec800" style="animation-play-state:paused" ></path>
<path d="M -10 -111 L -23 -202 L -65 -96 Z" stroke="#e7b100" fill="#e7b100" style="animation-play-state:paused" ></path>
<path d="M 339 -178 L 285 -173 L 368 -86 Z" stroke="#f1d900" fill="#f1d900" style="animation-play-state:paused" ></path>
<path d="M 222 -167 L 135 -192 L 149 -92 Z" stroke="#eec900" fill="#eec900" style="animation-play-state:paused" ></path>
<path d="M 533 38 L 494 -80 L 485 -43 Z" stroke="#00dd5e" fill="#00dd5e" style="animation-play-state:paused" ></path>
<path d="M 485 -43 L 494 -80 L 427 -105 Z" stroke="#88e324" fill="#88e324" style="animation-play-state:paused" ></path>
<path d="M 413 -180 L 339 -178 L 368 -86 Z" stroke="#f1db00" fill="#f1db00" style="animation-play-state:paused" ></path>
<path d="M 163 -205 L 135 -192 L 222 -167 Z" stroke="#ecc300" fill="#ecc300" style="animation-play-state:paused" ></path>
<path d="M 135 -192 L 60 -174 L 79 -77 Z" stroke="#ecc000" fill="#ecc000" style="animation-play-state:paused" ></path>
<path d="M 413 -180 L 368 -86 L 427 -105 Z" stroke="#f2e105" fill="#f2e105" style="animation-play-state:paused" ></path>
<path d="M 285 -173 L 163 -205 L 222 -167 Z" stroke="#eec900" fill="#eec900" style="animation-play-state:paused" ></path>
<path d="M 135 -192 L 163 -205 L 60 -174 Z" stroke="#ebbc00" fill="#ebbc00" style="animation-play-state:paused" ></path>
<path d="M 534 1130 L 574 1087 L 487 1089 Z" stroke="#3c076e" fill="#3c076e" style="animation-play-state:paused" ></path>
<path d="M 487 1089 L 574 1087 L 525 993 Z" stroke="#3f0875" fill="#3f0875" style="animation-play-state:paused" ></path>
<path d="M 525 993 L 574 1087 L 530 916 Z" stroke="#440a7d" fill="#440a7d" style="animation-play-state:paused" ></path>
<path d="M 553 798 L 574 1087 L 552 528 Z" stroke="#57109d" fill="#57109d" style="animation-play-state:paused" ></path>
<path d="M 552 528 L 574 1087 L 566 251 Z" stroke="#6618b5" fill="#6618b5" style="animation-play-state:paused" ></path>
<path d="M 494 -80 L 438 -145 L 427 -105 Z" stroke="#cce400" fill="#cce400" style="animation-play-state:paused" ></path>
<path d="M 339 -178 L 163 -205 L 285 -173 Z" stroke="#eecc00" fill="#eecc00" style="animation-play-state:paused" ></path>
<path d="M 406 1147 L 482 1152 L 487 1089 Z" stroke="#42097a" fill="#42097a" style="animation-play-state:paused" ></path>
<path d="M 6 1177 L 482 1152 L 125 1145 Z" stroke="#6416b2" fill="#6416b2" style="animation-play-state:paused" ></path>
<path d="M 482 1152 L 534 1130 L 487 1089 Z" stroke="#3d0771" fill="#3d0771" style="animation-play-state:paused" ></path>
<path d="M 438 -145 L 413 -180 L 427 -105 Z" stroke="#f2df02" fill="#f2df02" style="animation-play-state:paused" ></path>
<path d="M 339 -178 L 446 -208 L 163 -205 Z" stroke="#efce00" fill="#efce00" style="animation-play-state:paused" ></path>
<path d="M 533 38 L 528 -120 L 494 -80 Z" stroke="#36e045" fill="#36e045" style="animation-play-state:paused" ></path>
<path d="M 494 -80 L 528 -120 L 438 -145 Z" stroke="#cae400" fill="#cae400" style="animation-play-state:paused" ></path>
<path d="M 438 -145 L 446 -208 L 413 -180 Z" stroke="#f1d900" fill="#f1d900" style="animation-play-state:paused" ></path>
<path d="M 539 -194 L 528 -120 L 533 38 Z" stroke="#96e41c" fill="#96e41c" style="animation-play-state:paused" ></path>
<path d="M 163 -205 L -23 -202 L 60 -174 Z" stroke="#e9b500" fill="#e9b500" style="animation-play-state:paused" ></path>
<path d="M 60 -174 L -23 -202 L -1 -153 Z" stroke="#e7b100" fill="#e7b100" style="animation-play-state:paused" ></path>
<path d="M -1 -153 L -23 -202 L -10 -111 Z" stroke="#e7b100" fill="#e7b100" style="animation-play-state:paused" ></path>
<path d="M 539 -194 L 446 -208 L 438 -145 Z" stroke="#f1d900" fill="#f1d900" style="animation-play-state:paused" ></path>
<path d="M 413 -180 L 446 -208 L 339 -178 Z" stroke="#f0d500" fill="#f0d500" style="animation-play-state:paused" ></path>
<path d="M 163 -205 L -108 -210 L -23 -202 Z" stroke="#e6ac00" fill="#e6ac00" style="animation-play-state:paused" ></path>
<path d="M -23 -202 L -108 -210 L -65 -96 Z" stroke="#e4a700" fill="#e4a700" style="animation-play-state:paused" ></path>
<path d="M 446 -208 L -108 -210 L 163 -205 Z" stroke="#ebbf00" fill="#ebbf00" style="animation-play-state:paused" ></path>
<path d="M 566 251 L 539 -194 L 533 38 Z" stroke="#00cda4" fill="#00cda4" style="animation-play-state:paused" ></path>
<path d="M 528 -120 L 539 -194 L 438 -145 Z" stroke="#f2e003" fill="#f2e003" style="animation-play-state:paused" ></path></g>
<style type="text/css" style="animation-play-state:paused" >#bk-0.24915209759693124 path { stroke-width: 1 }</style></g></svg>